<?xml version="1.0" encoding="UTF-8" standalone="no"?>
<svg
   xmlns:dc="http://purl.org/dc/elements/1.1/"
   xmlns:cc="http://creativecommons.org/ns#"
   xmlns:rdf="http://www.w3.org/1999/02/22-rdf-syntax-ns#"
   xmlns:svg="http://www.w3.org/2000/svg"
   xmlns="http://www.w3.org/2000/svg"
   xmlns:sodipodi="http://sodipodi.sourceforge.net/DTD/sodipodi-0.dtd"
   xmlns:inkscape="http://www.inkscape.org/namespaces/inkscape"
   id="eqleqe3ploak1"
   viewBox="0 0 544.369200 452.626030"
   shape-rendering="geometricPrecision"
   text-rendering="geometricPrecision"
   version="1.1"
   sodipodi:docname="logo.svg"
   inkscape:version="0.92.4 (5da689c313, 2019-01-14)">
  <metadata
     id="metadata17">
    <rdf:RDF>
      <cc:Work
         rdf:about="">
        <dc:format>image/svg+xml</dc:format>
        <dc:type
           rdf:resource="http://purl.org/dc/dcmitype/StillImage" />
      </cc:Work>
    </rdf:RDF>
  </metadata>
  <defs
     id="defs15">
    <filter
       style="color-interpolation-filters:sRGB;"
       inkscape:label="Drop Shadow"
       id="filter29">
      <feFlood
         flood-opacity="0.498039"
         flood-color="rgb(0,0,0)"
         result="flood"
         id="feFlood19" />
      <feComposite
         in="flood"
         in2="SourceGraphic"
         operator="in"
         result="composite1"
         id="feComposite21" />
      <feGaussianBlur
         in="composite1"
         stdDeviation="3.6"
         result="blur"
         id="feGaussianBlur23" />
      <feOffset
         dx="0"
         dy="0"
         result="offset"
         id="feOffset25" />
      <feComposite
         in="SourceGraphic"
         in2="offset"
         operator="over"
         result="composite2"
         id="feComposite27" />
    </filter>
    <filter
       style="color-interpolation-filters:sRGB;"
       inkscape:label="Drop Shadow"
       id="filter41">
      <feFlood
         flood-opacity="0.498039"
         flood-color="rgb(0,0,0)"
         result="flood"
         id="feFlood31" />
      <feComposite
         in="flood"
         in2="SourceGraphic"
         operator="in"
         result="composite1"
         id="feComposite33" />
      <feGaussianBlur
         in="composite1"
         stdDeviation="3.6"
         result="blur"
         id="feGaussianBlur35" />
      <feOffset
         dx="0"
         dy="0"
         result="offset"
         id="feOffset37" />
      <feComposite
         in="SourceGraphic"
         in2="offset"
         operator="over"
         result="composite2"
         id="feComposite39" />
    </filter>
    <filter
       style="color-interpolation-filters:sRGB;"
       inkscape:label="Drop Shadow"
       id="filter53">
      <feFlood
         flood-opacity="0.498039"
         flood-color="rgb(0,0,0)"
         result="flood"
         id="feFlood43" />
      <feComposite
         in="flood"
         in2="SourceGraphic"
         operator="in"
         result="composite1"
         id="feComposite45" />
      <feGaussianBlur
         in="composite1"
         stdDeviation="3.6"
         result="blur"
         id="feGaussianBlur47" />
      <feOffset
         dx="0"
         dy="0"
         result="offset"
         id="feOffset49" />
      <feComposite
         in="SourceGraphic"
         in2="offset"
         operator="over"
         result="composite2"
         id="feComposite51" />
    </filter>
    <filter
       style="color-interpolation-filters:sRGB;"
       inkscape:label="Drop Shadow"
       id="filter65">
      <feFlood
         flood-opacity="0.498039"
         flood-color="rgb(0,0,0)"
         result="flood"
         id="feFlood55" />
      <feComposite
         in="flood"
         in2="SourceGraphic"
         operator="in"
         result="composite1"
         id="feComposite57" />
      <feGaussianBlur
         in="composite1"
         stdDeviation="3.6"
         result="blur"
         id="feGaussianBlur59" />
      <feOffset
         dx="0"
         dy="0"
         result="offset"
         id="feOffset61" />
      <feComposite
         in="SourceGraphic"
         in2="offset"
         operator="over"
         result="composite2"
         id="feComposite63" />
    </filter>
  </defs>
  <sodipodi:namedview
     pagecolor="#ffffff"
     bordercolor="#666666"
     borderopacity="1"
     objecttolerance="10"
     gridtolerance="10"
     guidetolerance="10"
     inkscape:pageopacity="0"
     inkscape:pageshadow="2"
     inkscape:window-width="1080"
     inkscape:window-height="1891"
     id="namedview13"
     showgrid="false"
     inkscape:zoom="0.52140173"
     inkscape:cx="272.1846"
     inkscape:cy="226.31302"
     inkscape:window-x="0"
     inkscape:window-y="0"
     inkscape:window-maximized="1"
     inkscape:current-layer="eqleqe3ploak1" />
  <style
     id="style2"><![CDATA[#eqleqe3ploak2_ts {animation: eqleqe3ploak2_ts__ts 1500ms linear infinite normal forwards}@keyframes eqleqe3ploak2_ts__ts { 0% {transform: translate(224.798190px,226.308001px) scale(1,1)} 20% {transform: translate(224.798190px,226.308001px) scale(1,1);animation-timing-function: cubic-bezier(0,0,0.580000,1)} 40% {transform: translate(224.798190px,226.308001px) scale(1.130000,1.130000);animation-timing-function: cubic-bezier(0,0,0.580000,1)} 60% {transform: translate(224.798190px,226.308001px) scale(1,1)} 100% {transform: translate(224.798190px,226.308001px) scale(1,1)} }#eqleqe3ploak3_ts {animation: eqleqe3ploak3_ts__ts 1500ms linear infinite normal forwards}@keyframes eqleqe3ploak3_ts__ts { 0% {transform: translate(319.231030px,226.318001px) scale(1,1)} 40% {transform: translate(319.231030px,226.318001px) scale(1,1);animation-timing-function: cubic-bezier(0,0,0.580000,1)} 60% {transform: translate(319.231030px,226.318001px) scale(1.130000,1.130000);animation-timing-function: cubic-bezier(0,0,0.580000,1)} 80% {transform: translate(319.231030px,226.318001px) scale(1,1)} 100% {transform: translate(319.231030px,226.318001px) scale(1,1)} }#eqleqe3ploak4_ts {animation: eqleqe3ploak4_ts__ts 1500ms linear infinite normal forwards}@keyframes eqleqe3ploak4_ts__ts { 0% {transform: translate(445.022723px,233.183000px) scale(1,1)} 60% {transform: translate(445.022723px,233.183000px) scale(1,1);animation-timing-function: cubic-bezier(0,0,0.580000,1)} 80% {transform: translate(445.022723px,233.183000px) scale(1.130000,1.130000);animation-timing-function: cubic-bezier(0,0,0.580000,1)} 100% {transform: translate(445.022723px,233.183000px) scale(1,1)} }#eqleqe3ploak5_ts {animation: eqleqe3ploak5_ts__ts 1500ms linear infinite normal forwards}@keyframes eqleqe3ploak5_ts__ts { 0% {transform: translate(99.187627px,233.183000px) scale(1,1);animation-timing-function: cubic-bezier(0,0,0.580000,1)} 20% {transform: translate(99.187627px,233.183000px) scale(1.128465,1.128465);animation-timing-function: cubic-bezier(0,0,0.580000,1)} 40% {transform: translate(99.187627px,233.183000px) scale(1,1)} 100% {transform: translate(99.187627px,233.183000px) scale(1,1)} }]]></style>
  <g
     id="eqleqe3ploak2_ts"
     transform="translate(224.798190,226.308001) scale(1,1)"
     style="filter:url(#filter41)">
    <path
       id="eqleqe3ploak2"
       d="M216.899610,55.698002C218.439610,46.588002,226.509610,37.718002,233.389610,37.718002C243.929610,37.718002,265.489610,37.718002,275.669610,37.718002C284.979610,37.718002,293.479610,49.168002,290.669610,63.668002C274.349610,147.758000,241.919610,317.488000,226.749610,397.878000C224.599610,409.278000,216.239610,414.898000,210.709610,414.898000C202.119610,414.898000,185.509610,414.898000,174.219610,414.898000C167.159610,414.898000,157.129610,405.238000,158.509610,397.228000C176.659610,292.048000,202.339610,141.608000,216.899610,55.698002Z"
       transform="translate(-224.798190,-226.308001)"
       fill="#ffffff"
       stroke="none"
       stroke-width="1" />
  </g>
  <g
     id="eqleqe3ploak3_ts"
     transform="translate(319.231030,226.318001) scale(1,1)"
     style="filter:url(#filter53)">
    <path
       id="eqleqe3ploak3"
       d="M327.129610,55.708002C325.589610,46.598002,317.519610,37.728002,310.639610,37.728002C300.099610,37.728002,278.539610,37.728002,268.359610,37.728002C259.049610,37.728002,250.549610,49.178002,253.359610,63.678002C269.679610,147.768000,302.109610,317.498000,317.279610,397.888000C319.429610,409.288000,327.789610,414.908000,333.319610,414.908000C341.909610,414.908000,358.519610,414.908000,369.809610,414.908000C376.869610,414.908000,386.899610,405.248000,385.519610,397.238000C367.369610,292.058000,341.689610,141.618000,327.129610,55.708002Z"
       transform="translate(-319.231030,-226.318001)"
       fill="#ffffff"
       stroke="none"
       stroke-width="1" />
  </g>
  <g
     id="eqleqe3ploak4_ts"
     transform="translate(445.022723,233.183000) scale(1,1)"
     style="filter:url(#filter65)">
    <path
       id="eqleqe3ploak4"
       d="M1123.020000,545.880000C1118.380000,541.040000,1069.680000,490.160000,1052.770000,473.350000C1046.540000,467.160000,1046.540000,456.900000,1049.320000,450.030000C1051.490000,444.670000,1058.070000,438.710000,1064.470000,438.740000C1075.740000,438.790000,1099.520000,438.740000,1110.780000,438.740000C1114.940000,438.740000,1118.650000,440.920000,1122.370000,444.690000C1142.680000,465.240000,1181.370000,505.120000,1202.980000,528.050000L1202.980000,528.050000C1204.420000,529.570000,1205.910000,530.930000,1207.080000,532.170000C1210.620000,535.920000,1211.720000,540.300000,1211.920000,543.730000C1212.010000,544.660000,1212.050000,545.530000,1212.070000,546.310000C1212.160000,549.900000,1211.260000,555.170000,1207.080000,559.580000C1205.910000,560.820000,1204.420000,562.180000,1202.980000,563.700000L1202.980000,563.700000C1181.370000,586.630000,1142.680000,626.510000,1122.370000,647.060000C1118.650000,650.830000,1114.940000,653.010000,1110.780000,653.010000C1099.520000,653.010000,1075.740000,652.960000,1064.470000,653.010000C1058.070000,653.040000,1051.490000,647.080000,1049.320000,641.720000C1046.540000,634.850000,1046.540000,624.590000,1052.770000,618.400000C1069.690000,601.610000,1118.390000,550.730000,1123.020000,545.880000Z"
       transform="translate(-1129.807567,-545.875000)"
       fill="#ffffff"
       stroke="none"
       stroke-width="1" />
  </g>
  <g
     id="eqleqe3ploak5_ts"
     transform="translate(99.187627,233.183000) scale(1,1)"
     style="filter:url(#filter29)">
    <path
       id="eqleqe3ploak5"
       d="M789.670000,546.460000C794.310000,541.620000,843.010000,490.740000,859.920000,473.930000C866.150000,467.740000,866.150000,457.480000,863.370000,450.610000C861.200000,445.250000,854.620000,439.290000,848.220000,439.320000C836.950000,439.370000,813.170000,439.320000,801.910000,439.320000C797.750000,439.320000,794.040000,441.500000,790.320000,445.270000C770.010000,465.820000,731.320000,505.700000,709.710000,528.630000L709.710000,528.630000C708.270000,530.150000,706.780000,531.510000,705.610000,532.750000C702.070000,536.500000,700.970000,540.880000,700.770000,544.310000C700.680000,545.240000,700.640000,546.110000,700.620000,546.890000C700.530000,550.480000,701.430000,555.750000,705.610000,560.160000C706.780000,561.400000,708.270000,562.760000,709.710000,564.280000L709.710000,564.280000C731.320000,587.210000,770.010000,627.090000,790.320000,647.640000C794.040000,651.410000,797.750000,653.590000,801.910000,653.590000C813.170000,653.590000,836.950000,653.540000,848.220000,653.590000C854.620000,653.620000,861.200000,647.660000,863.370000,642.300000C866.150000,635.430000,866.150000,625.170000,859.920000,618.980000C843.010000,602.180000,794.310000,551.300000,789.670000,546.460000Z"
       transform="translate(-782.882433,-546.455000)"
       fill="#ffffff"
       stroke="none"
       stroke-width="1" />
  </g>
</svg>
